<?xml version="1.0" encoding="UTF-8"?>
<svg width="752pt" height="752pt" version="1.1" viewBox="0 0 752 752" xmlns="http://www.w3.org/2000/svg">
 <path d="m233.74 237.27c-12.953 0-23.5 10.496-23.5 23.254v200.9c0 12.887 10.547 23.387 23.5 23.387h202.79c2.5352 4.9141 5.8711 9.5664 10.012 13.688 21.762 21.656 57.137 21.656 78.898 0 21.766-21.656 21.766-56.867 0-78.523-4.1406-4.1211-8.8086-7.5742-13.75-10.098v-107.77c0-12.887-10.547-23.387-23.5-23.387h-53.664l-5.6055-19.266c-3.7422-12.621-16.555-22.188-29.773-22.188zm0 7.4414h165.4c9.3477 0 19.762 7.9766 22.43 16.875l5.2109 17.145-193.04-0.003907c-6.1406 0-11.75 2.3906-16.02 6.2422v-24.445c-0.003906-8.7695 7.0664-15.812 16.02-15.812zm198.79 41.59h55.668c8.9492 0 15.887 6.9102 15.887 15.809v104.57c-19.492-6.6406-41.926-2.2578-57.539 13.289-15.617 15.414-19.891 37.867-13.219 57.266h-199.58c-8.9492 0-16.02-6.9102-16.02-15.809v-159.31c0-1.0625 0.26562-2.125 0.39844-3.0547v-0.13281c0.40234-1.9922 1.2031-3.9844 2.4062-5.7109 0.53125-0.93359 1.2031-1.5977 1.8711-2.2578 2.8047-2.9219 6.8086-4.6523 11.348-4.6523h198.12c0.26172-0.003907 0.39453-0.003907 0.66406-0.003907zm53.535 124.76c12.281 0 24.695 4.7812 34.039 14.219 18.957 18.734 18.957 49.164 0 67.898-18.828 18.734-49.398 18.734-68.219 0-18.957-18.734-18.957-49.164 0-67.898 9.3438-9.4375 21.762-14.219 34.18-14.219zm-2.9375 14.086c-10.551 0.52734-19.359 7.5742-20.16 17.801-0.26953 1.8594 1.4688 3.8516 3.4648 3.9883 1.8711 0.13281 3.8711-1.4648 4.0078-3.4531 0.53516-7.1758 7.0742-11.824 16.285-10.629 10.68 1.3242 15.492 15.68 6.2734 22.723-2.1367 1.5898-4.543 3.0547-6.8086 5.3125-2.1328 2.1211-4.1328 5.4453-4.1328 9.4297v4.5195c0 1.9922 1.8711 3.8516 3.8711 3.8516 1.9961 0 3.7383-1.8594 3.7383-3.8555v-4.5195c0-1.8594 0.66797-2.7891 2.0039-4.2461 1.3359-1.3242 3.4727-2.7891 5.8711-4.6445 14.289-10.898 7.3438-33.879-9.7461-36.145-1.5977-0.13281-3.0664-0.26562-4.668-0.13281zm2.9375 58.594c-2.8086 0-5.0703 2.125-5.0703 4.9141 0 2.6602 2.2695 5.0469 5.0703 5.0469 2.668 0 4.9375-2.3906 4.9375-5.0469 0-2.7891-2.2695-4.9141-4.9375-4.9141z" fill="#9b9b9b"/>
</svg>
