<?xml version="1.0" encoding="UTF-8"?>
<svg width="752pt" height="752pt" version="1.1" viewBox="0 0 752 752" xmlns="http://www.w3.org/2000/svg">
 <path d="m366.92 231.95c-67.504-0.09375-134.08 26.051-183.95 75.734-2.3086 2.3047-2.3086 6.0391 0 8.3438 2.3125 2.2969 6.0547 2.2969 8.3711 0 74.312-74.039 187.41-93.289 282.18-48.023 2.9531 1.3984 6.4883 0.15234 7.8984-2.7852 1.4062-2.9453 0.15234-6.4688-2.8008-7.8711-35.676-17.039-73.828-25.348-111.7-25.398zm135.34 39.293c-37.762 0-68.512 30.723-68.512 68.484 0 37.762 30.75 68.52 68.512 68.52 37.762 0 68.52-30.758 68.52-68.52 0-37.762-30.758-68.484-68.52-68.484zm0 11.82c31.363 0 56.672 25.297 56.672 56.664 0 31.363-25.309 56.672-56.672 56.672-31.363 0-56.664-25.309-56.664-56.672 0-31.363 25.297-56.664 56.664-56.664zm-134.6 21.059c-49.305-0.30469-97.59 18.84-133.47 54.594-2.3008 2.3047-2.3008 6.0273 0 8.332 1.1094 1.1172 2.6172 1.7461 4.1914 1.75 1.5781 0.007813 3.0898-0.61328 4.207-1.7227 45.781-45.613 113.04-62.363 174.96-43.547 3.1328 0.94922 6.4453-0.80859 7.3984-3.9297 0.95703-3.1172-0.80469-6.4141-3.9297-7.3711-17.559-5.3359-35.527-7.9922-53.359-8.1055zm106.25 1.3398v0.003906c-1.5703-0.007813-3.0781 0.60547-4.1914 1.7109-1.1172 1.1094-1.7422 2.6211-1.7422 4.1953 0 1.5742 0.625 3.082 1.7422 4.1914l24.16 24.16-24.16 24.16c-1.1172 1.1133-1.7422 2.6211-1.7422 4.1953s0.625 3.0859 1.7422 4.1953c1.1094 1.1172 2.6211 1.7422 4.1953 1.7422 1.5742 0 3.082-0.625 4.1953-1.7422l24.152-24.16 24.16 24.16h-0.003906c1.1133 1.1172 2.6211 1.7422 4.1953 1.7422s3.0859-0.625 4.1953-1.7422c1.1172-1.1094 1.7422-2.6211 1.7422-4.1953s-0.625-3.082-1.7422-4.1953l-24.16-24.16 24.16-24.16c1.1172-1.1094 1.7422-2.6172 1.7422-4.1914 0-1.5742-0.625-3.0859-1.7422-4.1953-1.1133-1.1055-2.6211-1.7188-4.1914-1.7109-1.5703-0.011719-3.082 0.60547-4.1992 1.7109l-24.16 24.16-24.152-24.16h0.003906c-1.1172-1.1055-2.6289-1.7227-4.1992-1.7109zm-107.47 70.875c-29.34 0-58.684 11.133-81.035 33.402v-0.003906c-1.1094 1.1133-1.7305 2.6172-1.7266 4.1875 0.003907 1.5664 0.63672 3.0703 1.7539 4.1758 2.3125 2.2969 6.0547 2.2969 8.3711 0 40.172-40.023 105.12-40.039 145.29-0.019531 1.1094 1.1133 2.6211 1.7422 4.1953 1.7461 1.5742 0.003906 3.0859-0.61719 4.2031-1.7266 1.1094-1.1133 1.7305-2.6211 1.7266-4.1875-0.007812-1.5703-0.63672-3.0703-1.7539-4.1758-22.352-22.27-51.688-33.398-81.027-33.398zm2.0898 80.426c-8.1445 0.007812-16.293 3.0977-22.477 9.2578-12.367 12.324-12.395 32.465-0.027343 44.785 12.367 12.324 32.613 12.324 44.98 0 12.367-12.324 12.367-32.492 0-44.812-6.1836-6.1602-14.332-9.2383-22.477-9.2305zm-0.007813 11.746c5.0859 0 10.168 1.9531 14.086 5.8555 7.8359 7.8047 7.8633 20.293 0.027343 28.102-7.8359 7.8047-20.375 7.7773-28.211-0.027344s-7.8359-20.266 0-28.074c3.918-3.9023 9.0078-5.8555 14.098-5.8555z" fill="#9b9b9b"/>
</svg>
