<?xml version="1.0" encoding="UTF-8"?>
<svg width="752pt" height="752pt" version="1.1" viewBox="0 0 752 752" xmlns="http://www.w3.org/2000/svg">
 <path d="m472.94 371.44c-0.67578 0-1.3242 0.082032-2 0.09375l0.003906-122.85c0-33.68-63.219-60.07-143.92-60.07-80.707 0-143.93 26.383-143.93 60.07v234.93c0 33.676 63.223 60.059 143.93 60.059 27.496 0 54.176-3.1484 77.176-9.1172 0.074219-0.019532 0.12891-0.074219 0.20312-0.097656 17.434 17.816 41.699 28.914 68.535 28.914 52.922 0 95.977-43.055 95.977-95.973 0-52.918-43.051-95.961-95.977-95.961zm-145.91-173.34c80.418 0 134.45 26.16 134.45 50.598 0 24.434-54.02 50.594-134.45 50.594-80.434 0-134.46-26.156-134.46-50.594 0.007812-24.438 54.031-50.598 134.46-50.598zm-134.46 72.391c20.508 22.594 72.273 38.266 134.46 38.266 62.176 0 113.95-15.672 134.45-38.266v56.523c0 24.426-54.02 50.578-134.45 50.578-80.434 0-134.46-26.152-134.46-50.578zm0 78.312c20.508 22.59 72.273 38.258 134.46 38.258 62.176 0 113.95-15.668 134.45-38.258v23.41c-42.035 5.0469-76.289 37.406-83.156 79.73-16.316 2.6133-33.559 3.9531-51.289 3.9531-80.434 0-134.46-26.156-134.46-50.594zm134.46 185.41c-80.434 0-134.46-26.156-134.46-50.59v-56.516c20.508 22.594 72.273 38.266 134.46 38.266 17.277 0 34.094-1.2773 50.117-3.6953-0.11328 1.9141-0.17969 3.832-0.17969 5.7383 0 22.27 7.6914 42.73 20.465 59.035-21.223 5.0625-45.422 7.7617-70.402 7.7617zm145.91 19.699c-47.695 0-86.504-38.801-86.504-86.5 0-3.582 0.22656-7.1992 0.66797-10.754 5.3477-43.18 42.25-75.746 85.836-75.746 47.695 0 86.504 38.801 86.504 86.5s-38.809 86.5-86.504 86.5zm4.1016-139.8c-1.6914-2.9297-6.5117-2.9297-8.2031 0l-51.938 89.973c-0.84766 1.4688-0.84766 3.2695 0 4.7344 0.84766 1.4688 2.4102 2.3672 4.1016 2.3672h103.88c0.03125 0.003906 0.070313 0.003906 0.09375 0 2.6172 0 4.7344-2.1172 4.7344-4.7344 0-1.1797-0.42969-2.2578-1.1406-3.0859zm-47.84 87.605 43.734-75.762 43.738 75.762zm39.004-52.781v27.777c0 2.6172 2.1172 4.7344 4.7344 4.7344s4.7344-2.1172 4.7344-4.7344l0.003906-27.777c0-2.6172-2.1172-4.7344-4.7344-4.7344-2.6211-0.003907-4.7383 2.1211-4.7383 4.7344zm4.7344 35.836c-2.6172 0-4.7344 2.1172-4.7344 4.7344v1.7188c0 2.6172 2.1172 4.7344 4.7344 4.7344s4.7344-2.1172 4.7344-4.7344v-1.7188c0.003906-2.6172-2.1172-4.7344-4.7344-4.7344z" fill="#9b9b9b"/>
</svg>
